<svg id="Group_15" data-name="Group 15" xmlns="http://www.w3.org/2000/svg" width="154.134" height="20.655" viewBox="0 0 154.134 20.655">
  <path id="Path_22" data-name="Path 22" d="M143.6,11.658c0-5.639,4.462-9.513,9.611-9.905a11.07,11.07,0,0,1,6.571,1.422c1.275.736,1.667,1.716,1.079,2.648-.539.883-1.618.981-2.8.147a7.514,7.514,0,0,0-8.434.588,6.94,6.94,0,0,0-1.716,7.7,6.426,6.426,0,0,0,6.473,3.972,10.855,10.855,0,0,0,3.678-1.03c1.324-.588,2.3-.686,2.8.2.539.981.2,1.863-1.079,2.648-4.9,2.942-12.5,1.471-15-4.119A30.381,30.381,0,0,1,143.6,11.658Z" transform="translate(-73.185 -0.871)" fill="#a9d7bb"/>
  <path id="Path_23" data-name="Path 23" d="M93.472,18.408a2.691,2.691,0,0,1-1.52,2.452c-2.893,1.569-5.737,3.236-8.581,4.855-1.275.736-1.667.441-1.814-1.03a2.574,2.574,0,0,1,1.618-2.7c1.569-.883,3.138-1.814,4.658-2.8.883-.588.883-1.275-.049-1.814-1.618-1.03-3.285-2.01-4.953-2.991A2.419,2.419,0,0,1,81.654,11.4c.294-.932.883-.736,1.52-.392,2.893,1.667,5.786,3.285,8.679,4.953a3.969,3.969,0,0,1,1.128.834A12.644,12.644,0,0,1,93.472,18.408Z" transform="translate(-41.543 -5.463)" fill="#a9d7bb"/>
  <path id="Path_24" data-name="Path 24" d="M245.1,18.6a2.3,2.3,0,0,1-1.422,2.648c-2.893,1.52-5.688,3.187-8.532,4.756-1.079.588-1.52.343-1.667-.932a2.7,2.7,0,0,1,1.52-2.893c1.569-.883,3.138-1.814,4.658-2.746.981-.637.981-1.275-.049-1.863-1.667-1.03-3.334-2.01-4.953-3.04-.441-.245-.981-.686-1.03-1.079a12.919,12.919,0,0,1,.147-2.354,8.026,8.026,0,0,1,1.863.49c2.844,1.52,5.737,3.089,8.532,4.756.637.392.883,1.373,1.275,2.109C245.34,18.5,245.193,18.553,245.1,18.6Z" transform="translate(-118.976 -5.657)" fill="#a9d7bb"/>
  <path id="Path_25" data-name="Path 25" d="M296.587,18.509c0-1.912-.049-3.825.049-5.737,0-.539.392-1.422.637-1.471a3.839,3.839,0,0,1,2.5.343c.687.588.981.686,1.716.245a4.9,4.9,0,0,1,1.765-.686c1.765-.294,2.108.049,2.01,1.814-.049.736-.245,1.079-1.03,1.226-2.991.49-3.923,1.667-3.972,4.658v5.492c0,1.324-.294,1.569-1.863,1.569-1.52,0-1.814-.2-1.814-1.618Z" transform="translate(-151.148 -5.661)" fill="#a9d7bb"/>
  <path id="Path_26" data-name="Path 26" d="M45.149,18.52c0-1.912-.049-3.825.049-5.737,0-.539.343-1.471.588-1.52a3.763,3.763,0,0,1,2.354.343c.687.441,1.079.785,1.863.2a3.65,3.65,0,0,1,1.422-.588c1.814-.49,2.452,0,2.4,1.814,0,.785-.441,1.079-1.128,1.177-3.187.392-4.021,2.109-4.07,4.855-.049,1.863-.049,3.776,0,5.639.049,1.275-.785,1.324-1.716,1.275-.932,0-1.814.1-1.814-1.324C45.2,22.59,45.149,20.58,45.149,18.52Z" transform="translate(-22.985 -5.624)" fill="#a9d7bb"/>
  <path id="Path_27" data-name="Path 27" d="M185.9,12.161V4.806c0-1.569.539-2.158,1.814-2.109,1.177,0,1.765.736,1.765,2.109V19.614c0,1.373-.637,2.109-1.814,2.109-1.226,0-1.765-.588-1.765-2.059Z" transform="translate(-94.743 -1.373)" fill="#a9d7bb"/>
  <path id="Path_28" data-name="Path 28" d="M68.8,18.655V12.918A1.411,1.411,0,0,1,70.418,11.3c1.079,0,1.765.49,1.765,1.569q.074,5.884,0,11.769c0,1.079-.736,1.52-1.814,1.471-1.03-.049-1.569-.49-1.569-1.569Z" transform="translate(-35.064 -5.759)" fill="#a9d7bb"/>
  <path id="Path_29" data-name="Path 29" d="M69.909,0c1.471,0,2.207.686,2.207,1.961a1.922,1.922,0,0,1-2.256,1.961A1.834,1.834,0,0,1,67.8,1.961C67.8.539,68.388,0,69.909,0Z" transform="translate(-34.554 0)" fill="#a9d7bb"/>
  <path id="Path_30" data-name="Path 30" d="M18.29,7.286c-1.667-3.678-4.805-5.149-8.581-5.492-2.6-.2-5.3-.049-7.944-.049C.441,1.745,0,2.186,0,3.51V19.3c0,1.569.343,1.912,1.863,1.912,2.256,0,4.511.1,6.718-.049a18.979,18.979,0,0,0,4.364-.785C18.781,18.662,20.4,12.091,18.29,7.286Zm-2.942,5.541c-.834,3.776-3.531,5.149-6.963,5.345-1.03.049-2.059,0-3.04,0-1.079,0-1.618-.539-1.618-1.667.049-1.667,0-3.334,0-5V6.354c0-.883.392-1.471,1.226-1.52,2.4-.049,4.707-.147,6.963.785C14.711,6.8,15.888,10.424,15.348,12.827Z" transform="translate(0 -0.862)" fill="#a9d7bb"/>
  <path id="Path_31" data-name="Path 31" d="M122.735,19.678c1.373,0,1.765-.49,1.618-1.814a8.851,8.851,0,0,0-.588-2.5c-1.373-3.138-3.825-4.413-7.208-4.364-5.835.049-8.728,5.835-6.718,10.69,1.961,4.756,8.14,5.247,11.474,3.629,2.354-1.177,2.4-1.863.147-3.58-.392.245-.686.49-1.03.686-1.961,1.177-5.3.834-6.669-.736a5.058,5.058,0,0,1-.686-1.471,4.253,4.253,0,0,1,1.52-.49C117.292,19.629,119.989,19.678,122.735,19.678Zm-9.905-2.6a3.679,3.679,0,0,1,3.432-3.334c1.912-.2,4.364,1.03,4.56,3.334Z" transform="translate(-55.654 -5.605)" fill="#a9d7bb"/>
  <path id="Path_32" data-name="Path 32" d="M266.6,19.622c1.373-.049,2.8,0,4.168,0h4.413c.981,0,1.52-.441,1.422-1.471-.2-2.7-1.177-4.953-3.678-6.277a8.018,8.018,0,0,0-7.8.049,6.98,6.98,0,0,0-3.727,6.718,6.769,6.769,0,0,0,4.168,6.571c3.138,1.373,6.178,1.373,9.072-.637.343-.245.686-.834.588-1.128a1.637,1.637,0,0,0-2.648-1.03c-2.01,1.226-5.3.834-6.718-.883a1.793,1.793,0,0,1-.441-1.373C265.419,19.916,266.155,19.671,266.6,19.622Zm-1.52-2.354a3.166,3.166,0,0,1,1.863-3.04,4.106,4.106,0,0,1,4.413.049,3.656,3.656,0,0,1,1.863,2.991Z" transform="translate(-133.22 -5.549)" fill="#a9d7bb"/>
  <path id="Path_33" data-name="Path 33" d="M204.486,19.681c1.471-.049,2.942,0,4.413,0h4.168c1.079,0,1.765-.392,1.569-1.569a12.549,12.549,0,0,0-1.03-3.58c-1.667-3.089-4.511-3.825-7.748-3.432a7.2,7.2,0,0,0-6.375,6.865A7.32,7.32,0,0,0,206.5,26.1a8.083,8.083,0,0,0,6.228-1.471,1.567,1.567,0,0,0,.588-1.275,1.605,1.605,0,0,0-2.648-.932c-2.207,1.324-5.737.736-6.963-1.177C203.015,20.318,203.309,19.73,204.486,19.681Zm-1.373-3.187a4.3,4.3,0,0,1,7.944-.2c.245.686.1,1.128-.736,1.079H203.75C203.064,17.425,202.917,17.18,203.113,16.493Z" transform="translate(-101.658 -5.608)" fill="#a9d7bb"/>
</svg>
