<svg xmlns="http://www.w3.org/2000/svg" width="145.539" height="19.503" viewBox="0 0 145.539 19.503">
  <g id="Group_15" data-name="Group 15" opacity="0.44">
    <path id="Path_22" data-name="Path 22" d="M143.6,11.1c0-5.325,4.213-8.982,9.075-9.353a10.453,10.453,0,0,1,6.2,1.343c1.2.695,1.574,1.621,1.019,2.5-.509.833-1.528.926-2.639.139a7.1,7.1,0,0,0-7.964.556,6.553,6.553,0,0,0-1.621,7.269,6.068,6.068,0,0,0,6.112,3.75,10.25,10.25,0,0,0,3.473-.972c1.25-.556,2.176-.648,2.639.185.509.926.185,1.759-1.019,2.5-4.63,2.778-11.807,1.389-14.168-3.889A28.689,28.689,0,0,1,143.6,11.1Z" transform="translate(-77.111 -0.917)" fill="#204480"/>
    <path id="Path_23" data-name="Path 23" d="M92.8,17.98a2.541,2.541,0,0,1-1.435,2.315c-2.732,1.482-5.417,3.056-8.1,4.584-1.2.695-1.574.417-1.713-.972a2.431,2.431,0,0,1,1.528-2.547c1.482-.833,2.963-1.713,4.4-2.639.833-.556.833-1.2-.046-1.713-1.528-.972-3.1-1.9-4.676-2.824a2.284,2.284,0,0,1-1.111-2.824c.278-.88.833-.695,1.435-.37,2.732,1.574,5.464,3.1,8.2,4.676a3.748,3.748,0,0,1,1.065.787A11.939,11.939,0,0,1,92.8,17.98Z" transform="translate(-43.772 -5.756)" fill="#204480"/>
    <path id="Path_24" data-name="Path 24" d="M244.446,18.184a2.171,2.171,0,0,1-1.343,2.5c-2.732,1.435-5.371,3.01-8.056,4.491-1.019.556-1.435.324-1.574-.88a2.549,2.549,0,0,1,1.435-2.732c1.482-.833,2.963-1.713,4.4-2.593.926-.6.926-1.2-.046-1.759-1.574-.972-3.149-1.9-4.676-2.871-.417-.232-.926-.648-.972-1.019a12.2,12.2,0,0,1,.139-2.222,7.579,7.579,0,0,1,1.759.463c2.685,1.435,5.417,2.917,8.056,4.491.6.37.833,1.3,1.2,1.991C244.677,18.091,244.538,18.138,244.446,18.184Z" transform="translate(-125.359 -5.961)" fill="#204480"/>
    <path id="Path_25" data-name="Path 25" d="M296.587,18.1c0-1.806-.046-3.611.046-5.417,0-.509.37-1.343.6-1.389a3.624,3.624,0,0,1,2.361.324c.648.556.926.648,1.621.232a4.627,4.627,0,0,1,1.667-.648c1.667-.278,1.991.046,1.9,1.713-.046.695-.232,1.019-.972,1.158-2.824.463-3.7,1.574-3.75,4.4v5.186c0,1.25-.278,1.482-1.759,1.482-1.435,0-1.713-.185-1.713-1.528Z" transform="translate(-159.257 -5.965)" fill="#204480"/>
    <path id="Path_26" data-name="Path 26" d="M45.146,18.1c0-1.806-.046-3.612.046-5.417,0-.509.324-1.389.556-1.435a3.554,3.554,0,0,1,2.222.324c.648.417,1.019.741,1.759.185a3.446,3.446,0,0,1,1.343-.556c1.713-.463,2.315,0,2.269,1.713,0,.741-.417,1.019-1.065,1.111-3.01.37-3.8,1.991-3.843,4.584-.046,1.759-.046,3.565,0,5.325.046,1.2-.741,1.25-1.621,1.2-.88,0-1.713.093-1.713-1.25C45.193,21.946,45.146,20.048,45.146,18.1Z" transform="translate(-24.218 -5.926)" fill="#204480"/>
    <path id="Path_27" data-name="Path 27" d="M185.9,11.633V4.688c0-1.482.509-2.037,1.713-1.991,1.111,0,1.667.695,1.667,1.991V18.671c0,1.3-.6,1.991-1.713,1.991-1.158,0-1.667-.556-1.667-1.945Z" transform="translate(-99.826 -1.447)" fill="#204480"/>
    <path id="Path_28" data-name="Path 28" d="M68.8,18.245V12.828A1.333,1.333,0,0,1,70.328,11.3c1.019,0,1.667.463,1.667,1.482q.069,5.556,0,11.112c0,1.019-.695,1.435-1.713,1.389-.972-.046-1.482-.463-1.482-1.482Z" transform="translate(-36.945 -6.068)" fill="#204480"/>
    <path id="Path_29" data-name="Path 29" d="M69.791,0c1.389,0,2.084.648,2.084,1.852A1.815,1.815,0,0,1,69.745,3.7,1.732,1.732,0,0,1,67.8,1.852C67.8.509,68.356,0,69.791,0Z" transform="translate(-36.408 0)" fill="#204480"/>
    <path id="Path_30" data-name="Path 30" d="M17.27,6.974C15.7,3.5,12.733,2.112,9.168,1.788c-2.454-.185-5-.046-7.5-.046C.417,1.742,0,2.159,0,3.409V18.318c0,1.482.324,1.806,1.759,1.806,2.13,0,4.26.093,6.343-.046a17.92,17.92,0,0,0,4.121-.741C17.733,17.716,19.261,11.512,17.27,6.974Zm-2.778,5.232c-.787,3.565-3.334,4.862-6.575,5.047-.972.046-1.945,0-2.871,0-1.019,0-1.528-.509-1.528-1.574.046-1.574,0-3.148,0-4.723V6.094c0-.833.37-1.389,1.158-1.435,2.269-.046,4.445-.139,6.575.741C13.89,6.511,15,9.937,14.492,12.206Z" transform="translate(0 -0.909)" fill="#204480"/>
    <path id="Path_31" data-name="Path 31" d="M121.98,19.194c1.3,0,1.667-.463,1.528-1.713a8.358,8.358,0,0,0-.556-2.361c-1.3-2.963-3.612-4.167-6.806-4.121-5.51.046-8.242,5.51-6.343,10.094,1.852,4.491,7.686,4.954,10.835,3.426,2.222-1.111,2.269-1.759.139-3.38-.37.232-.648.463-.972.648-1.852,1.111-5,.787-6.3-.695a4.776,4.776,0,0,1-.648-1.389,4.016,4.016,0,0,1,1.435-.463C116.841,19.148,119.388,19.194,121.98,19.194Zm-9.353-2.454a3.474,3.474,0,0,1,3.241-3.148c1.806-.185,4.121.972,4.306,3.148Z" transform="translate(-58.64 -5.905)" fill="#204480"/>
    <path id="Path_32" data-name="Path 32" d="M266.306,19.135c1.3-.046,2.639,0,3.936,0h4.167c.926,0,1.435-.417,1.343-1.389-.185-2.547-1.111-4.676-3.473-5.927a7.571,7.571,0,0,0-7.362.046,6.591,6.591,0,0,0-3.519,6.343,6.391,6.391,0,0,0,3.936,6.2,8.274,8.274,0,0,0,8.566-.6c.324-.232.648-.787.556-1.065a1.546,1.546,0,0,0-2.5-.972c-1.9,1.158-5,.787-6.343-.833a1.693,1.693,0,0,1-.417-1.3C265.2,19.413,265.89,19.181,266.306,19.135Zm-1.435-2.222a2.99,2.99,0,0,1,1.759-2.871,3.877,3.877,0,0,1,4.167.046,3.452,3.452,0,0,1,1.759,2.824Z" transform="translate(-140.367 -5.846)" fill="#204480"/>
    <path id="Path_33" data-name="Path 33" d="M204.206,19.2c1.389-.046,2.778,0,4.167,0h3.936c1.019,0,1.667-.37,1.482-1.482a11.85,11.85,0,0,0-.972-3.38c-1.574-2.917-4.26-3.612-7.316-3.241a6.8,6.8,0,0,0-6.019,6.482,6.912,6.912,0,0,0,6.621,7.686,7.632,7.632,0,0,0,5.88-1.389,1.48,1.48,0,0,0,.556-1.2,1.516,1.516,0,0,0-2.5-.88c-2.084,1.25-5.417.695-6.575-1.111C202.817,19.8,203.095,19.243,204.206,19.2Zm-1.3-3.01a4.064,4.064,0,0,1,7.5-.185c.232.648.093,1.065-.695,1.019h-6.2C202.863,17.067,202.724,16.836,202.91,16.187Z" transform="translate(-107.112 -5.908)" fill="#204480"/>
  </g>
</svg>
