<svg xmlns="http://www.w3.org/2000/svg" xmlns:xlink="http://www.w3.org/1999/xlink" width="91" height="91" viewBox="0 0 91 91">
  <defs>
    <filter id="Ellipse_25" x="0" y="0" width="91" height="91" filterUnits="userSpaceOnUse">
      <feOffset dy="3" input="SourceAlpha"/>
      <feGaussianBlur stdDeviation="3" result="blur"/>
      <feFlood flood-color="#fff" flood-opacity="0.2"/>
      <feComposite operator="in" in2="blur"/>
      <feComposite in="SourceGraphic"/>
    </filter>
  </defs>
  <g id="Component_8_1" data-name="Component 8 – 1" transform="translate(9 6)">
    <g transform="matrix(1, 0, 0, 1, -9, -6)" filter="url(#Ellipse_25)">
      <g id="Ellipse_25-2" data-name="Ellipse 25" transform="translate(9 6)" fill="none" stroke="#ededed" stroke-width="2.7">
        <circle cx="36.5" cy="36.5" r="36.5" stroke="none"/>
        <circle cx="36.5" cy="36.5" r="35.15" fill="none"/>
      </g>
    </g>
    <g id="car-insurance" transform="translate(23.001 22.239)">
      <path id="Path_62" data-name="Path 62" d="M26.605,18.25l-1.981-.282a.454.454,0,0,1-.306-.184l-1.476-2.067a2.238,2.238,0,0,0-1.825-.941H19.25a6.88,6.88,0,0,0,3.138-5.794V8.693l2.108-2.108-.633-.633L22.387,7.426V6.991l-1.577.524a1.918,1.918,0,0,1-1.921-.452l-.084-.084V0H5.635L0,5.635V27.76H18.805V23.283h.941a2.239,2.239,0,0,0,4.387,0h2.284A1.345,1.345,0,0,0,27.76,21.94V19.58A1.342,1.342,0,0,0,26.605,18.25ZM21.1,8.364l.4-.132v.089l-3.134,3.134-1.027-1.027-.633.633,1.66,1.66,3.1-3.1a5.988,5.988,0,0,1-3.1,4.645,6,6,0,0,1-3.134-5.289V8.232l.394.131a2.823,2.823,0,0,0,2.741-.571A2.832,2.832,0,0,0,21.1,8.364ZM5.373,1.529V5.373H1.529ZM17.91,26.865H.9V6.268H6.268V.9H17.91V6.979l-.084.084a1.911,1.911,0,0,1-1.924.451l-1.574-.523v1.99a6.88,6.88,0,0,0,3.138,5.794H15.286a2.234,2.234,0,0,0-1.864,1l-1.079,1.62a.453.453,0,0,1-.244.182l-3.53,1.057a1.342,1.342,0,0,0-.957,1.288V21.94a1.345,1.345,0,0,0,1.343,1.343h2.284a2.239,2.239,0,0,0,4.387,0H17.91Zm-5.821-4.03a1.343,1.343,0,1,1,1.343,1.343A1.345,1.345,0,0,1,12.089,22.835Zm9.85,1.343a1.343,1.343,0,1,1,1.343-1.343A1.345,1.345,0,0,1,21.94,24.178Zm4.925-2.239a.448.448,0,0,1-.448.448H24.133a2.239,2.239,0,0,0-4.387,0h-4.12a2.239,2.239,0,0,0-4.387,0H8.955a.448.448,0,0,1-.448-.448V19.92a.451.451,0,0,1,.321-.431l3.532-1.058a1.34,1.34,0,0,0,.728-.542l1.079-1.62a1.341,1.341,0,0,1,1.118-.6h5.731a1.341,1.341,0,0,1,1.1.565L23.589,18.3a1.359,1.359,0,0,0,.907.551l1.979.281a.451.451,0,0,1,.39.444Zm0,0" fill="#fff"/>
      <path id="Path_63" data-name="Path 63" d="M232,400h.9v.9H232Zm0,0" transform="translate(-219.015 -377.613)" fill="#fff"/>
      <path id="Path_64" data-name="Path 64" d="M384,400h.9v.9H384Zm0,0" transform="translate(-362.508 -377.613)" fill="#fff"/>
      <path id="Path_65" data-name="Path 65" d="M244.4,296l-1.343,2.687h9.061L250.772,296Zm.106,1.791.448-.9h5.267l.448.9Zm0,0" transform="translate(-229.451 -279.433)" fill="#fff"/>
      <path id="Path_66" data-name="Path 66" d="M137.85,32H128v4.477h9.85Zm-.9,3.582H128.9V32.9h8.059Zm0,0" transform="translate(-120.836 -30.209)" fill="#fff"/>
      <path id="Path_67" data-name="Path 67" d="M208,64h.9v.9H208Zm0,0" transform="translate(-196.359 -60.418)" fill="#fff"/>
      <path id="Path_68" data-name="Path 68" d="M240,64h.9v.9H240Zm0,0" transform="translate(-226.568 -60.418)" fill="#fff"/>
      <path id="Path_69" data-name="Path 69" d="M176,64h.9v.9H176Zm0,0" transform="translate(-166.15 -60.418)" fill="#fff"/>
      <path id="Path_70" data-name="Path 70" d="M32,128H42.3v.9H32Zm0,0" transform="translate(-30.209 -120.836)" fill="#fff"/>
      <path id="Path_72" data-name="Path 72" d="M144,160h4.03v.9H144Zm0,0" transform="translate(-135.941 -151.045)" fill="#fff"/>
      <path id="Path_73" data-name="Path 73" d="M32,160h5.373v.9H32Zm0,0" transform="translate(-30.209 -151.045)" fill="#fff"/>
      <path id="Path_74" data-name="Path 74" d="M32,224H42.3v.9H32Zm0,0" transform="translate(-30.209 -211.463)" fill="#fff"/>
      <path id="Path_75" data-name="Path 75" d="M32,256H42.3v.9H32Zm0,0" transform="translate(-30.209 -241.672)" fill="#fff"/>
      <path id="Path_76" data-name="Path 76" d="M38.791,417.164c-.215-.492-.509-1.164-1.194-1.164s-.98.674-1.194,1.166c-.074.171-.273.625-.369.625s-.3-.441-.378-.629c-.215-.49-.51-1.162-1.193-1.162s-.979.673-1.194,1.164c-.082.188-.274.627-.373.627H32v.9h.9c.685,0,.979-.673,1.194-1.164.082-.188.274-.627.373-.627s.291.438.373.625c.216.492.512,1.166,1.2,1.166s.975-.672,1.189-1.162c.082-.188.274-.629.373-.629s.291.439.373.627c.215.492.509,1.164,1.194,1.164h.9v-.9h-.9C39.065,417.791,38.873,417.352,38.791,417.164Zm0,0" transform="translate(-30.209 -392.717)" fill="#fff"/>
      <path id="Path_77" data-name="Path 77" d="M192,448h.9v.9H192Zm0,0" transform="translate(-181.254 -422.926)" fill="#fff"/>
    </g>
  </g>
</svg>
