<svg xmlns="http://www.w3.org/2000/svg" xmlns:xlink="http://www.w3.org/1999/xlink" width="91" height="91" viewBox="0 0 91 91">
  <defs>
    <filter id="Ellipse_24" x="0" y="0" width="91" height="91" filterUnits="userSpaceOnUse">
      <feOffset dy="3" input="SourceAlpha"/>
      <feGaussianBlur stdDeviation="3" result="blur"/>
      <feFlood flood-color="#fff" flood-opacity="0.2"/>
      <feComposite operator="in" in2="blur"/>
      <feComposite in="SourceGraphic"/>
    </filter>
  </defs>
  <g id="Component_6_1" data-name="Component 6 – 1" transform="translate(9 6)">
    <g transform="matrix(1, 0, 0, 1, -9, -6)" filter="url(#Ellipse_24)">
      <g id="Ellipse_24-2" data-name="Ellipse 24" transform="translate(9 6)" fill="none" stroke="#ededed" stroke-width="2.7">
        <circle cx="36.5" cy="36.5" r="36.5" stroke="none"/>
        <circle cx="36.5" cy="36.5" r="35.15" fill="none"/>
      </g>
    </g>
    <path id="Path_58" data-name="Path 58" d="M34.708,15.884a1.074,1.074,0,0,0-.076-.081l-1.3-1.2c1.075-.234,2.233-1.1,2.233-1.986,0-1.034-1.494-1.4-2.77-1.4a1.332,1.332,0,0,0-1.5,1.5l-3.345-3.1a4.828,4.828,0,0,0-2.932-1.154H11.983A4.829,4.829,0,0,0,9.051,9.617l-3.345,3.1a1.334,1.334,0,0,0-1.5-1.5c-1.277,0-2.771.367-2.771,1.4,0,.887,1.158,1.752,2.234,1.986l-1.3,1.2c-.029.027-.05.054-.076.081A6.852,6.852,0,0,0,0,20.664v4.551a4.064,4.064,0,0,0,1.187,2.854v1.765a1.947,1.947,0,0,0,2.007,1.874H5.621a1.945,1.945,0,0,0,2.006-1.874v-.452H29.373v.452a1.945,1.945,0,0,0,2.007,1.874h2.426a1.945,1.945,0,0,0,2.006-1.874V28.069A4.061,4.061,0,0,0,37,25.215V20.664A6.844,6.844,0,0,0,34.708,15.884ZM10.28,10.992a3.426,3.426,0,0,1,1.7-.662H25.019a3.426,3.426,0,0,1,1.7.662l4.387,4.08H5.894ZM1.505,19.975a2.036,2.036,0,0,1,2.042-2.03c1.127,0,4.812,2.076,4.812,3.2S4.674,22,3.547,22A2.033,2.033,0,0,1,1.505,19.975Zm6.124,7.411H6.851l-2.307,0a4.464,4.464,0,0,1-1.411-.654,1.961,1.961,0,0,1-.382-.373,1.441,1.441,0,0,1-.214-.376,1.662,1.662,0,0,1,.306-1.494H6.779L9.4,27.385Zm16.534,0H12.839A2.1,2.1,0,0,1,10.7,25.336H26.3A2.1,2.1,0,0,1,24.162,27.388Zm.5-3.452H12.342c-1.284,0-2.326-1.519-2.326-3.393H26.985C26.985,22.418,25.943,23.936,24.659,23.936Zm9.807,2.053a1.451,1.451,0,0,1-.215.375,1.92,1.92,0,0,1-.382.373,4.424,4.424,0,0,1-1.411.654l-2.307,0H27.6L30.222,24.5h3.937A1.659,1.659,0,0,1,34.466,25.989ZM33.455,22c-1.127,0-4.811.258-4.811-.861s3.684-3.2,4.811-3.2a2.029,2.029,0,1,1,0,4.057Z" transform="translate(18 16.537)" fill="#ededed"/>
  </g>
</svg>
