<svg xmlns="http://www.w3.org/2000/svg" viewBox="0 0 24 24"><defs><style>.cls-1{fill:#fff;}</style></defs><title>Asset 3</title><g id="Layer_2" data-name="Layer 2"><g id="Layer_1-2" data-name="Layer 1"><path class="cls-1" d="M24,13.62V10.38c-1.65-.58-2.69-.75-3.22-2s.1-2.13.85-3.7L19.34,2.37c-1.56.74-2.43,1.38-3.7.85S14.2,1.64,13.62,0H10.38c-.58,1.63-.74,2.69-2,3.22s-2.13-.1-3.7-.85L2.37,4.66c.75,1.56,1.38,2.43.85,3.7S1.64,9.8,0,10.38v3.24c1.63.58,2.69.74,3.22,2s-.12,2.17-.85,3.71l2.29,2.29c1.56-.75,2.43-1.38,3.7-.85s1.44,1.58,2,3.22h3.24c.58-1.64.75-2.69,2-3.22s2.12.1,3.7.85l2.29-2.29c-.75-1.56-1.38-2.43-.85-3.7S22.37,14.2,24,13.62ZM11.85,16.93c-6.45,0-6.44-10,0-10S18.28,16.93,11.85,16.93Z"/></g></g></svg>