<svg xmlns="http://www.w3.org/2000/svg" width="20" height="24" viewBox="0 0 20 24">
  <path id="iconmonstr-book-11" d="M5.495,2H22V0H5A3,3,0,0,0,2,3V21a3,3,0,0,0,3,3H22V4H5.5a1,1,0,1,1,0-2Zm7.561,7.273a1.065,1.065,0,0,1,1.446.018.936.936,0,0,1-.135,1.364,1.064,1.064,0,0,1-1.446-.018A.936.936,0,0,1,13.056,9.273Zm.583,4.567c-.627,1.508-1.075,2.525-1.331,3.31-.374,1.144.569.68,1.493-.173.127.206.167.271.294.508-2.054,1.953-4.331,2.125-3.623-.12.464-1.469,1.342-3.229,1.5-3.675.225-.646-.174-.934-1.429.171l-.278-.525c1.431-1.558,4.381-1.91,3.378.5Z" transform="translate(-2)" fill="#ededed"/>
</svg>
