<svg xmlns="http://www.w3.org/2000/svg" xmlns:xlink="http://www.w3.org/1999/xlink" width="91" height="91" viewBox="0 0 91 91">
  <defs>
    <filter id="Ellipse_26" x="0" y="0" width="91" height="91" filterUnits="userSpaceOnUse">
      <feOffset dy="3" input="SourceAlpha"/>
      <feGaussianBlur stdDeviation="3" result="blur"/>
      <feFlood flood-color="#fff" flood-opacity="0.2"/>
      <feComposite operator="in" in2="blur"/>
      <feComposite in="SourceGraphic"/>
    </filter>
  </defs>
  <g id="Component_9_1" data-name="Component 9 – 1" transform="translate(9 6)">
    <g transform="matrix(1, 0, 0, 1, -9, -6)" filter="url(#Ellipse_26)">
      <g id="Ellipse_26-2" data-name="Ellipse 26" transform="translate(9 6)" fill="none" stroke="#ededed" stroke-width="2.7">
        <circle cx="36.5" cy="36.5" r="36.5" stroke="none"/>
        <circle cx="36.5" cy="36.5" r="35.15" fill="none"/>
      </g>
    </g>
    <path id="Path_606" data-name="Path 606" d="M-80.571,2054.6h2.216v-2.648h15.516v6.4l5.136-1L-58,2075.128h-2.751v2.907H-80.027Z" transform="translate(106 -2029)" fill="#ededed"/>
    <g id="documents" transform="translate(-14 -518.123)">
      <g id="Group_36" data-name="Group 36" transform="translate(39 540.362)">
        <g id="Group_35" data-name="Group 35" transform="translate(0 0)">
          <path id="Path_78" data-name="Path 78" d="M62.318,546.626c0-.006-.006-.017-.006-.023s-.006-.017-.006-.028-.006-.017-.006-.023a.043.043,0,0,0-.011-.023c-.006-.006-.006-.017-.011-.023s-.006-.017-.011-.023-.006-.017-.011-.023a.119.119,0,0,0-.023-.034c-.006-.006-.006-.011-.011-.017a.125.125,0,0,0-.023-.029l-4.682-5.809c-.011-.017-.028-.028-.04-.045s-.006-.006-.011-.006l-.034-.034c-.006-.006-.011-.006-.017-.011s-.023-.017-.034-.023-.011-.006-.017-.011l-.034-.017c-.006-.006-.011-.006-.017-.011a.277.277,0,0,0-.04-.017c-.006,0-.011-.006-.017-.006s-.028-.006-.04-.011-.011-.006-.017-.006a.126.126,0,0,0-.046-.006h-.017c-.023,0-.04-.006-.063-.006H41.93a.571.571,0,0,0-.569.569v2.338H39.569a.571.571,0,0,0-.569.569v23.715a.571.571,0,0,0,.569.569H59.433a.571.571,0,0,0,.569-.569v-2.338h1.752a.571.571,0,0,0,.569-.569V546.66A.072.072,0,0,0,62.318,546.626Zm-4.676-4.091,2.924,3.63H57.642Zm-.973,4.563,1.57,1.935H55.321v-3.6l1.274,1.57A.577.577,0,0,0,56.669,547.1Zm-14.17-5.6H56.5v3.59l-1.308-1.61c-.011-.017-.028-.029-.04-.046l-.011-.011c-.011-.011-.023-.017-.034-.028s-.011-.006-.017-.011-.023-.017-.034-.023-.011-.006-.017-.011l-.034-.017a.021.021,0,0,0-.017-.006l-.04-.017c-.006,0-.011-.006-.017-.006s-.028-.006-.04-.011-.011-.006-.017-.006a.126.126,0,0,0-.046-.006h-.017c-.023,0-.04-.006-.063-.006H42.5Zm-2.361,25.49V544.4H54.183v5.2a.571.571,0,0,0,.569.569h4.113v16.813H40.138Zm21.048-2.9H60v-14.56a.072.072,0,0,0-.006-.034c0-.006-.006-.017-.006-.023s-.006-.017-.006-.028-.006-.017-.006-.023a.043.043,0,0,0-.011-.023c-.006-.006-.006-.017-.011-.023s-.006-.017-.011-.023-.006-.017-.011-.023a.124.124,0,0,0-.017-.028c-.006-.006-.006-.011-.011-.011s-.017-.028-.028-.04l-1.57-1.935h2.878Z" transform="translate(-39 -540.362)" fill="#fff"/>
          <path id="Path_79" data-name="Path 79" d="M123.508,753.7H111.869a.569.569,0,0,0,0,1.138h11.639a.569.569,0,0,0,0-1.138Z" transform="translate(-107.187 -741.568)" fill="#2d5897"/>
          <path id="Path_80" data-name="Path 80" d="M123.508,814.716H111.869a.569.569,0,0,0,0,1.138h11.639a.569.569,0,0,0,0-1.138Z" transform="translate(-107.187 -799.109)" fill="#2d5897"/>
          <path id="Path_81" data-name="Path 81" d="M123.508,875.729H111.869a.569.569,0,0,0,0,1.138h11.639a.569.569,0,0,0,0-1.138Z" transform="translate(-107.187 -856.651)" fill="#2d5897"/>
          <path id="Path_82" data-name="Path 82" d="M123.508,936.741H111.869a.569.569,0,0,0,0,1.138h11.639a.569.569,0,0,0,0-1.138Z" transform="translate(-107.187 -914.193)" fill="#2d5897"/>
        </g>
      </g>
    </g>
    <path id="Path_607" data-name="Path 607" d="M-78.107,2054.651h15.6l5.474,6.08s-.011,13.744-.064,18.534" transform="translate(102.686 -2029.143)" fill="none" stroke="#2d5897" stroke-linejoin="round" stroke-width="1"/>
    <path id="Path_608" data-name="Path 608" d="M-65.263,2054.651v5.891h5.911" transform="translate(105 -2029)" fill="none" stroke="#2d5897" stroke-linejoin="round" stroke-width="1"/>
  </g>
</svg>
