<svg xmlns="http://www.w3.org/2000/svg" xmlns:xlink="http://www.w3.org/1999/xlink" width="30" height="30" viewBox="0 0 30 30">
  <defs>
    <filter id="Path_57" x="0" y="0" width="30" height="30" filterUnits="userSpaceOnUse">
      <feOffset dy="1" input="SourceAlpha"/>
      <feGaussianBlur stdDeviation="1" result="blur"/>
      <feFlood flood-opacity="0.161"/>
      <feComposite operator="in" in2="blur"/>
      <feComposite in="SourceGraphic"/>
    </filter>
  </defs>
  <g id="exclamation-mark-in-a-circle" transform="translate(3 2)">
    <g transform="matrix(1, 0, 0, 1, -3, -2)" filter="url(#Path_57)">
      <path id="Path_57-2" data-name="Path 57" d="M12,0A12,12,0,1,0,24,12,12,12,0,0,0,12,0Zm0,19.66A1.569,1.569,0,0,1,10.42,18,1.57,1.57,0,0,1,12,16.34,1.541,1.541,0,0,1,13.58,18,1.554,1.554,0,0,1,12,19.66Zm.622-6.339c-.239.815-.992.829-1.243,0a30.045,30.045,0,0,1-1.316-6.942c0-3.11,3.891-3.125,3.891,0A30.755,30.755,0,0,1,12.622,13.321Z" transform="translate(3 2)" fill="#ededed"/>
    </g>
  </g>
</svg>
